<svg id="Camada_1" data-name="Camada 1" xmlns="http://www.w3.org/2000/svg" viewBox="0 0 224.12 158.39"><defs><style>.cls-1{fill:#758bfd;}.cls-2{fill:#ff8600;}.cls-3{fill:#27187e;}</style></defs><title>Logo RecruIT</title><path class="cls-1" d="M1373.87,413.39a104.95,104.95,0,0,1-35.74,133.39,104.95,104.95,0,0,1,35.74-133.39m2.55-9.82a111.93,111.93,0,0,0-41,153l.16,0a111.93,111.93,0,0,0,41-153l-.16,0Z" transform="translate(-1222.94 -398.89)"/><path class="cls-1" d="M1296.13,413.39a104.95,104.95,0,0,1,35.74,133.39,104.95,104.95,0,0,1-35.74-133.39m-2.55-9.82-.16,0a111.93,111.93,0,0,0,41,153l.16,0a111.93,111.93,0,0,0-41-153Z" transform="translate(-1222.94 -398.89)"/><path class="cls-2" d="M1335,409a104.92,104.92,0,0,1,0,138.09A104.92,104.92,0,0,1,1335,409m.08-10.15h-.16a111.92,111.92,0,0,0,0,158.39h.16a111.92,111.92,0,0,0,0-158.39Z" transform="translate(-1222.94 -398.89)"/><path class="cls-3" d="M1439.82,452.26a104.95,104.95,0,0,1-97.64,97.65,104.95,104.95,0,0,1,97.64-97.65m7.12-7.24a111.94,111.94,0,0,0-112,112l.12.12a111.93,111.93,0,0,0,112-112l-.12-.12Z" transform="translate(-1222.94 -398.89)"/><path class="cls-3" d="M1230.18,452.26a104.95,104.95,0,0,1,97.64,97.65,104.95,104.95,0,0,1-97.64-97.65m-7.12-7.24-.12.12a111.93,111.93,0,0,0,112,112l.12-.12a111.94,111.94,0,0,0-112-112Z" transform="translate(-1222.94 -398.89)"/></svg>