<?xml version="1.0" encoding="UTF-8" standalone="no"?><svg xmlns="http://www.w3.org/2000/svg" xmlns:xlink="http://www.w3.org/1999/xlink" contentScriptType="application/ecmascript" contentStyleType="text/css" height="697.8px" preserveAspectRatio="none" style="width:1117px;height:697px;" version="1.1" viewBox="0 0 1117 697" width="1117.8px" zoomAndPan="magnify"><defs><filter height="300%" id="fsabta17nvzpj" width="300%" x="-1" y="-1"><feGaussianBlur result="blurOut" stdDeviation="1.2"/><feColorMatrix in="blurOut" result="blurOut2" type="matrix" values="0 0 0 0 0 0 0 0 0 0 0 0 0 0 0 0 0 0 .4 0"/><feOffset dx="2.4" dy="2.4" in="blurOut2" result="blurOut3"/><feBlend in="SourceGraphic" in2="blurOut3" mode="normal"/></filter></defs><g><!--MD5=[5d4cd377749310b66bf14896f5cd8d9b]
cluster model--><polygon fill="#FFFFFF" filter="url(#fsabta17nvzpj)" points="80.4,165,114,165,118.2,178.3781,275.4,178.3781,275.4,578.4,80.4,578.4,80.4,165" style="stroke: #000000; stroke-width: 0.8999999999999999;"/><line style="stroke: #000000; stroke-width: 0.8999999999999999;" x1="80.4" x2="118.2" y1="178.3781" y2="178.3781"/><text fill="#000000" font-family="sans-serif" font-size="8.4" font-weight="bold" lengthAdjust="spacingAndGlyphs" textLength="30" x="82.8" y="173.9971">model</text><!--MD5=[7579d5565d2521d5936cec86ed3dadee]
cluster service--><polygon fill="#FFFFFF" filter="url(#fsabta17nvzpj)" points="294.6,14.4,332.4,14.4,336.6,27.7781,747,27.7781,747,244.8,294.6,244.8,294.6,14.4" style="stroke: #000000; stroke-width: 0.8999999999999999;"/><line style="stroke: #000000; stroke-width: 0.8999999999999999;" x1="294.6" x2="336.6" y1="27.7781" y2="27.7781"/><text fill="#000000" font-family="sans-serif" font-size="8.4" font-weight="bold" lengthAdjust="spacingAndGlyphs" textLength="34.2" x="297" y="23.3971">service</text><!--MD5=[cf58d37b78f149325f79356613ff3b39]
cluster impl--><polygon fill="#FFFFFF" filter="url(#fsabta17nvzpj)" points="309,40.2,333.6,40.2,337.8,53.5781,732.6,53.5781,732.6,145.8,309,145.8,309,40.2" style="stroke: #000000; stroke-width: 0.8999999999999999;"/><line style="stroke: #000000; stroke-width: 0.8999999999999999;" x1="309" x2="337.8" y1="53.5781" y2="53.5781"/><text fill="#000000" font-family="sans-serif" font-size="8.4" font-weight="bold" lengthAdjust="spacingAndGlyphs" textLength="21" x="311.4" y="49.1971">impl</text><!--MD5=[10ea673caf457862023e152271927b45]
cluster controller--><polygon fill="#FFFFFF" filter="url(#fsabta17nvzpj)" points="109.8,615.6,160.8,615.6,165,628.9781,373.8,628.9781,373.8,690.6,109.8,690.6,109.8,615.6" style="stroke: #000000; stroke-width: 0.8999999999999999;"/><line style="stroke: #000000; stroke-width: 0.8999999999999999;" x1="109.8" x2="165" y1="628.9781" y2="628.9781"/><text fill="#000000" font-family="sans-serif" font-size="8.4" font-weight="bold" lengthAdjust="spacingAndGlyphs" textLength="47.4" x="112.2" y="624.5971">controller</text><!--MD5=[bd0bd4c41e0e5269e37474fd45a6abb7]
cluster repository--><polygon fill="#FFFFFF" filter="url(#fsabta17nvzpj)" points="294.6,487.2,348,487.2,352.2,500.5781,481.8,500.5781,481.8,562.2,294.6,562.2,294.6,487.2" style="stroke: #000000; stroke-width: 0.8999999999999999;"/><line style="stroke: #000000; stroke-width: 0.8999999999999999;" x1="294.6" x2="352.2" y1="500.5781" y2="500.5781"/><text fill="#000000" font-family="sans-serif" font-size="8.4" font-weight="bold" lengthAdjust="spacingAndGlyphs" textLength="49.8" x="297" y="496.1971">repository</text><!--MD5=[c1658959ae7efea6f1f166ee65b2b4aa]
cluster security--><polygon fill="#FFFFFF" filter="url(#fsabta17nvzpj)" points="761.4,40.2,803.4,40.2,807.6,53.5781,1104.6,53.5781,1104.6,390,761.4,390,761.4,40.2" style="stroke: #000000; stroke-width: 0.8999999999999999;"/><line style="stroke: #000000; stroke-width: 0.8999999999999999;" x1="761.4" x2="807.6" y1="53.5781" y2="53.5781"/><text fill="#000000" font-family="sans-serif" font-size="8.4" font-weight="bold" lengthAdjust="spacingAndGlyphs" textLength="38.4" x="763.8" y="49.1971">security</text><!--MD5=[3fd616f346a44cd59a91eb10b19e157c]
class User--><rect fill="#FEFECE" filter="url(#fsabta17nvzpj)" height="67.2686" id="User" style="stroke: #A80036; stroke-width: 0.8999999999999999;" width="75" x="160.5" y="294"/><ellipse cx="187.35" cy="303.6" fill="#ADD1B2" rx="6.6" ry="6.6" style="stroke: #A80036; stroke-width: 0.6;"/><path d="M188.8312,307.125 Q188.4844,307.3125 188.1,307.4063 Q187.7156,307.5 187.2938,307.5 Q185.7938,307.5 184.9969,306.4969 Q184.2094,305.4938 184.2094,303.6 Q184.2094,301.7063 184.9969,300.7031 Q185.7938,299.7 187.2938,299.7 Q187.7156,299.7 188.1,299.7938 Q188.4938,299.8875 188.8312,300.075 L188.8312,301.7531 Q188.4562,301.4156 188.1,301.2562 Q187.7438,301.0875 187.3688,301.0875 Q186.5625,301.0875 186.15,301.725 Q185.7375,302.3625 185.7375,303.6 Q185.7375,304.8469 186.15,305.4844 Q186.5625,306.1125 187.3688,306.1125 Q187.7438,306.1125 188.1,305.9531 Q188.4562,305.7938 188.8312,305.4469 L188.8312,307.125 Z "/><text fill="#000000" font-family="sans-serif" font-size="7.2" lengthAdjust="spacingAndGlyphs" textLength="16.2" x="199.65" y="306.0926">User</text><line style="stroke: #A80036; stroke-width: 0.8999999999999999;" x1="161.1" x2="234.9" y1="313.2" y2="313.2"/><rect fill="none" height="3.6" style="stroke: #C82930; stroke-width: 0.6;" width="3.6" x="165.3" y="318"/><text fill="#000000" font-family="sans-serif" font-size="6.6" lengthAdjust="spacingAndGlyphs" textLength="37.8" x="172.5" y="321.735">uuid : UUID</text><rect fill="none" height="3.6" style="stroke: #C82930; stroke-width: 0.6;" width="3.6" x="165.3" y="325.6937"/><text fill="#000000" font-family="sans-serif" font-size="6.6" lengthAdjust="spacingAndGlyphs" textLength="46.2" x="172.5" y="329.4287">name : String</text><rect fill="none" height="3.6" style="stroke: #C82930; stroke-width: 0.6;" width="3.6" x="165.3" y="333.3875"/><text fill="#000000" font-family="sans-serif" font-size="6.6" lengthAdjust="spacingAndGlyphs" textLength="45.6" x="172.5" y="337.1224">email : String</text><rect fill="none" height="3.6" style="stroke: #C82930; stroke-width: 0.6;" width="3.6" x="165.3" y="341.0812"/><text fill="#000000" font-family="sans-serif" font-size="6.6" lengthAdjust="spacingAndGlyphs" textLength="59.4" x="172.5" y="344.8161">password : String</text><rect fill="none" height="3.6" style="stroke: #C82930; stroke-width: 0.6;" width="3.6" x="165.3" y="348.7749"/><text fill="#000000" font-family="sans-serif" font-size="6.6" lengthAdjust="spacingAndGlyphs" textLength="58.2" x="172.5" y="352.5099">type : TypeEnum</text><line style="stroke: #A80036; stroke-width: 0.8999999999999999;" x1="161.1" x2="234.9" y1="356.4686" y2="356.4686"/><!--MD5=[a5b40ab6867253cbae57d257f30bbbb8]
class UserDTO--><rect fill="#FEFECE" filter="url(#fsabta17nvzpj)" height="67.2686" id="UserDTO" style="stroke: #A80036; stroke-width: 0.8999999999999999;" width="75" x="134.7" y="496.8"/><ellipse cx="154.77" cy="506.4" fill="#ADD1B2" rx="6.6" ry="6.6" style="stroke: #A80036; stroke-width: 0.6;"/><path d="M156.2513,509.925 Q155.9044,510.1125 155.52,510.2062 Q155.1356,510.3 154.7137,510.3 Q153.2137,510.3 152.4169,509.2969 Q151.6294,508.2938 151.6294,506.4 Q151.6294,504.5062 152.4169,503.5031 Q153.2137,502.5 154.7137,502.5 Q155.1356,502.5 155.52,502.5938 Q155.9138,502.6875 156.2513,502.875 L156.2513,504.5531 Q155.8763,504.2156 155.52,504.0563 Q155.1638,503.8875 154.7888,503.8875 Q153.9825,503.8875 153.57,504.525 Q153.1575,505.1625 153.1575,506.4 Q153.1575,507.6469 153.57,508.2844 Q153.9825,508.9125 154.7888,508.9125 Q155.1638,508.9125 155.52,508.7531 Q155.8763,508.5938 156.2513,508.2469 L156.2513,509.925 Z "/><text fill="#000000" font-family="sans-serif" font-size="7.2" lengthAdjust="spacingAndGlyphs" textLength="31.2" x="165.63" y="508.8926">UserDTO</text><line style="stroke: #A80036; stroke-width: 0.8999999999999999;" x1="135.3" x2="209.1" y1="516" y2="516"/><rect fill="none" height="3.6" style="stroke: #C82930; stroke-width: 0.6;" width="3.6" x="139.5" y="520.8"/><text fill="#000000" font-family="sans-serif" font-size="6.6" lengthAdjust="spacingAndGlyphs" textLength="46.2" x="146.7" y="524.535">name : String</text><rect fill="none" height="3.6" style="stroke: #C82930; stroke-width: 0.6;" width="3.6" x="139.5" y="528.4937"/><text fill="#000000" font-family="sans-serif" font-size="6.6" lengthAdjust="spacingAndGlyphs" textLength="45.6" x="146.7" y="532.2287">email : String</text><rect fill="none" height="3.6" style="stroke: #C82930; stroke-width: 0.6;" width="3.6" x="139.5" y="536.1875"/><text fill="#000000" font-family="sans-serif" font-size="6.6" lengthAdjust="spacingAndGlyphs" textLength="59.4" x="146.7" y="539.9224">password : String</text><rect fill="none" height="3.6" style="stroke: #C82930; stroke-width: 0.6;" width="3.6" x="139.5" y="543.8812"/><text fill="#000000" font-family="sans-serif" font-size="6.6" lengthAdjust="spacingAndGlyphs" textLength="42" x="146.7" y="547.6161">type : String</text><line style="stroke: #A80036; stroke-width: 0.8999999999999999;" x1="135.3" x2="209.1" y1="551.5749" y2="551.5749"/><ellipse cx="141.3" cy="558.1749" fill="#84BE84" rx="1.8" ry="1.8" style="stroke: #038048; stroke-width: 0.6;"/><text fill="#000000" font-family="sans-serif" font-size="6.6" lengthAdjust="spacingAndGlyphs" textLength="49.8" x="146.7" y="560.1099">toUser() : User</text><!--MD5=[cd6c1f4f4ff01fee9d1f45ff32c3c5b7]
class JWTResponse--><rect fill="#FEFECE" filter="url(#fsabta17nvzpj)" height="44.1875" id="JWTResponse" style="stroke: #A80036; stroke-width: 0.8999999999999999;" width="67.2" x="193.8" y="416.4"/><ellipse cx="202.8" cy="426" fill="#ADD1B2" rx="6.6" ry="6.6" style="stroke: #A80036; stroke-width: 0.6;"/><path d="M204.2813,429.525 Q203.9344,429.7125 203.55,429.8063 Q203.1656,429.9 202.7438,429.9 Q201.2438,429.9 200.4469,428.8969 Q199.6594,427.8938 199.6594,426 Q199.6594,424.1063 200.4469,423.1031 Q201.2438,422.1 202.7438,422.1 Q203.1656,422.1 203.55,422.1937 Q203.9438,422.2875 204.2813,422.475 L204.2813,424.1531 Q203.9063,423.8156 203.55,423.6563 Q203.1938,423.4875 202.8188,423.4875 Q202.0125,423.4875 201.6,424.125 Q201.1875,424.7625 201.1875,426 Q201.1875,427.2469 201.6,427.8844 Q202.0125,428.5125 202.8188,428.5125 Q203.1938,428.5125 203.55,428.3531 Q203.9063,428.1937 204.2813,427.8469 L204.2813,429.525 Z "/><text fill="#000000" font-family="sans-serif" font-size="7.2" lengthAdjust="spacingAndGlyphs" textLength="48" x="211.2" y="428.4926">JWTResponse</text><line style="stroke: #A80036; stroke-width: 0.8999999999999999;" x1="194.4" x2="260.4" y1="435.6" y2="435.6"/><rect fill="none" height="3.6" style="stroke: #C82930; stroke-width: 0.6;" width="3.6" x="198.6" y="440.4"/><text fill="#000000" font-family="sans-serif" font-size="6.6" lengthAdjust="spacingAndGlyphs" textLength="37.8" x="205.8" y="444.135">user : User</text><rect fill="none" height="3.6" style="stroke: #C82930; stroke-width: 0.6;" width="3.6" x="198.6" y="448.0937"/><text fill="#000000" font-family="sans-serif" font-size="6.6" lengthAdjust="spacingAndGlyphs" textLength="45.6" x="205.8" y="451.8287">token : String</text><line style="stroke: #A80036; stroke-width: 0.8999999999999999;" x1="194.4" x2="260.4" y1="455.7875" y2="455.7875"/><!--MD5=[67a0701315603e36601dd77a8f0a1069]
class LoginInfo--><rect fill="#FEFECE" filter="url(#fsabta17nvzpj)" height="44.1875" id="LoginInfo" style="stroke: #A80036; stroke-width: 0.8999999999999999;" width="75" x="185.7" y="190.8"/><ellipse cx="204.69" cy="200.4" fill="#ADD1B2" rx="6.6" ry="6.6" style="stroke: #A80036; stroke-width: 0.6;"/><path d="M206.1713,203.925 Q205.8244,204.1125 205.44,204.2062 Q205.0556,204.3 204.6338,204.3 Q203.1338,204.3 202.3369,203.2969 Q201.5494,202.2938 201.5494,200.4 Q201.5494,198.5063 202.3369,197.5031 Q203.1338,196.5 204.6338,196.5 Q205.0556,196.5 205.44,196.5938 Q205.8337,196.6875 206.1713,196.875 L206.1713,198.5531 Q205.7963,198.2156 205.44,198.0563 Q205.0837,197.8875 204.7087,197.8875 Q203.9025,197.8875 203.49,198.525 Q203.0775,199.1625 203.0775,200.4 Q203.0775,201.6469 203.49,202.2844 Q203.9025,202.9125 204.7087,202.9125 Q205.0837,202.9125 205.44,202.7531 Q205.7963,202.5938 206.1713,202.2469 L206.1713,203.925 Z "/><text fill="#000000" font-family="sans-serif" font-size="7.2" lengthAdjust="spacingAndGlyphs" textLength="33.6" x="215.31" y="202.8926">LoginInfo</text><line style="stroke: #A80036; stroke-width: 0.8999999999999999;" x1="186.3" x2="260.1" y1="210" y2="210"/><rect fill="none" height="3.6" style="stroke: #C82930; stroke-width: 0.6;" width="3.6" x="190.5" y="214.8"/><text fill="#000000" font-family="sans-serif" font-size="6.6" lengthAdjust="spacingAndGlyphs" textLength="45.6" x="197.7" y="218.535">email : String</text><rect fill="none" height="3.6" style="stroke: #C82930; stroke-width: 0.6;" width="3.6" x="190.5" y="222.4937"/><text fill="#000000" font-family="sans-serif" font-size="6.6" lengthAdjust="spacingAndGlyphs" textLength="59.4" x="197.7" y="226.2287">password : String</text><line style="stroke: #A80036; stroke-width: 0.8999999999999999;" x1="186.3" x2="260.1" y1="230.1875" y2="230.1875"/><!--MD5=[9aa2ef3dd1499feb5629911cc4089290]
class TypeEnum--><rect fill="#FEFECE" filter="url(#fsabta17nvzpj)" height="44.1875" id="TypeEnum" style="stroke: #A80036; stroke-width: 0.8999999999999999;" width="58.2" x="106.5" y="190.8"/><ellipse cx="115.5" cy="200.4" fill="#EB937F" rx="6.6" ry="6.6" style="stroke: #A80036; stroke-width: 0.6;"/><path d="M117.9656,204.3 L113.3344,204.3 L113.3344,196.5 L117.9656,196.5 L117.9656,197.8688 L114.8062,197.8688 L114.8062,199.5 L117.6656,199.5 L117.6656,200.8688 L114.8062,200.8688 L114.8062,202.9406 L117.9656,202.9406 L117.9656,204.3 Z "/><text fill="#000000" font-family="sans-serif" font-size="7.2" lengthAdjust="spacingAndGlyphs" textLength="39" x="123.9" y="202.8926">TypeEnum</text><line style="stroke: #A80036; stroke-width: 0.8999999999999999;" x1="107.1" x2="164.1" y1="210" y2="210"/><text fill="#000000" font-family="sans-serif" font-size="6.6" lengthAdjust="spacingAndGlyphs" textLength="18" x="110.1" y="218.535">USER</text><text fill="#000000" font-family="sans-serif" font-size="6.6" lengthAdjust="spacingAndGlyphs" textLength="34.2" x="110.1" y="226.2287">COMPANY</text><line style="stroke: #A80036; stroke-width: 0.8999999999999999;" x1="107.1" x2="164.1" y1="230.1875" y2="230.1875"/><!--MD5=[b07be2b600772d055921457a51a4b081]
class AuthenticationService--><rect fill="#FEFECE" filter="url(#fsabta17nvzpj)" height="44.1875" id="AuthenticationService" style="stroke: #A80036; stroke-width: 0.8999999999999999;" width="181.8" x="540.9" y="190.8"/><ellipse cx="589.35" cy="200.4" fill="#B4A7E5" rx="6.6" ry="6.6" style="stroke: #A80036; stroke-width: 0.6;"/><path d="M587.2031,197.8688 L587.2031,196.5 L591.6375,196.5 L591.6375,197.8688 L590.1563,197.8688 L590.1563,202.9406 L591.6375,202.9406 L591.6375,204.3 L587.2031,204.3 L587.2031,202.9406 L588.6844,202.9406 L588.6844,197.8688 L587.2031,197.8688 Z "/><text fill="#000000" font-family="sans-serif" font-size="7.2" font-style="italic" lengthAdjust="spacingAndGlyphs" textLength="79.8" x="601.65" y="202.8926">AuthenticationService</text><line style="stroke: #A80036; stroke-width: 0.8999999999999999;" x1="541.5" x2="722.1" y1="210" y2="210"/><line style="stroke: #A80036; stroke-width: 0.8999999999999999;" x1="541.5" x2="722.1" y1="214.8" y2="214.8"/><ellipse cx="547.5" cy="221.4" fill="#84BE84" rx="1.8" ry="1.8" style="stroke: #038048; stroke-width: 0.6;"/><text fill="#000000" font-family="sans-serif" font-size="6.6" lengthAdjust="spacingAndGlyphs" textLength="81.6" x="552.9" y="223.335">save(user : User) : User</text><ellipse cx="547.5" cy="229.0937" fill="#84BE84" rx="1.8" ry="1.8" style="stroke: #038048; stroke-width: 0.6;"/><text fill="#000000" font-family="sans-serif" font-size="6.6" lengthAdjust="spacingAndGlyphs" textLength="166.2" x="552.9" y="231.0287">authenticate(loginInfo : LoginInfo) : JWTResponse</text><!--MD5=[a273a88426c4376d67390181994bf865]
class AuthenticationServiceImpl--><rect fill="#FEFECE" filter="url(#fsabta17nvzpj)" height="74.9624" id="AuthenticationServiceImpl" style="stroke: #A80036; stroke-width: 0.8999999999999999;" width="181.8" x="540.9" y="61.2"/><ellipse cx="581.25" cy="70.8" fill="#ADD1B2" rx="6.6" ry="6.6" style="stroke: #A80036; stroke-width: 0.6;"/><path d="M582.7312,74.325 Q582.3844,74.5125 582,74.6063 Q581.6156,74.7 581.1938,74.7 Q579.6938,74.7 578.8969,73.6969 Q578.1094,72.6938 578.1094,70.8 Q578.1094,68.9063 578.8969,67.9031 Q579.6938,66.9 581.1938,66.9 Q581.6156,66.9 582,66.9937 Q582.3938,67.0875 582.7312,67.275 L582.7312,68.9531 Q582.3562,68.6156 582,68.4563 Q581.6438,68.2875 581.2688,68.2875 Q580.4625,68.2875 580.05,68.925 Q579.6375,69.5625 579.6375,70.8 Q579.6375,72.0469 580.05,72.6844 Q580.4625,73.3125 581.2688,73.3125 Q581.6438,73.3125 582,73.1531 Q582.3562,72.9937 582.7312,72.6469 L582.7312,74.325 Z "/><text fill="#000000" font-family="sans-serif" font-size="7.2" lengthAdjust="spacingAndGlyphs" textLength="96" x="593.55" y="73.2926">AuthenticationServiceImpl</text><line style="stroke: #A80036; stroke-width: 0.8999999999999999;" x1="541.5" x2="722.1" y1="80.4" y2="80.4"/><rect fill="none" height="3.6" style="stroke: #C82930; stroke-width: 0.6;" width="3.6" x="545.7" y="85.2"/><text fill="#000000" font-family="sans-serif" font-size="6.6" lengthAdjust="spacingAndGlyphs" textLength="111" x="552.9" y="88.935">userRepository : UserRepository</text><rect fill="none" height="3.6" style="stroke: #C82930; stroke-width: 0.6;" width="3.6" x="545.7" y="92.8937"/><text fill="#000000" font-family="sans-serif" font-size="6.6" lengthAdjust="spacingAndGlyphs" textLength="163.8" x="552.9" y="96.6287">authenticationManager : AuthenticationManager</text><rect fill="none" height="3.6" style="stroke: #C82930; stroke-width: 0.6;" width="3.6" x="545.7" y="100.5875"/><text fill="#000000" font-family="sans-serif" font-size="6.6" lengthAdjust="spacingAndGlyphs" textLength="91.8" x="552.9" y="104.3224">jwtTokenUtil : JWTTokenUtil</text><rect fill="none" height="3.6" style="stroke: #C82930; stroke-width: 0.6;" width="3.6" x="545.7" y="108.2812"/><text fill="#000000" font-family="sans-serif" font-size="6.6" lengthAdjust="spacingAndGlyphs" textLength="133.8" x="552.9" y="112.0161">userDetailsService : UserDetailsService</text><line style="stroke: #A80036; stroke-width: 0.8999999999999999;" x1="541.5" x2="722.1" y1="115.9749" y2="115.9749"/><ellipse cx="547.5" cy="122.5749" fill="#84BE84" rx="1.8" ry="1.8" style="stroke: #038048; stroke-width: 0.6;"/><text fill="#000000" font-family="sans-serif" font-size="6.6" lengthAdjust="spacingAndGlyphs" textLength="81.6" x="552.9" y="124.5099">save(user : User) : User</text><ellipse cx="547.5" cy="130.2686" fill="#84BE84" rx="1.8" ry="1.8" style="stroke: #038048; stroke-width: 0.6;"/><text fill="#000000" font-family="sans-serif" font-size="6.6" lengthAdjust="spacingAndGlyphs" textLength="166.2" x="552.9" y="132.2036">authenticate(loginInfo : LoginInfo) : JWTResponse</text><!--MD5=[a1bdc989662bde64ad1e43dbbce9a2d0]
class UserDetailsServiceImpl--><rect fill="#FEFECE" filter="url(#fsabta17nvzpj)" height="51.8812" id="UserDetailsServiceImpl" style="stroke: #A80036; stroke-width: 0.8999999999999999;" width="201" x="318.9" y="72.9"/><ellipse cx="375.45" cy="82.5" fill="#ADD1B2" rx="6.6" ry="6.6" style="stroke: #A80036; stroke-width: 0.6;"/><path d="M376.9313,86.025 Q376.5844,86.2125 376.2,86.3062 Q375.8156,86.4 375.3938,86.4 Q373.8938,86.4 373.0969,85.3969 Q372.3094,84.3938 372.3094,82.5 Q372.3094,80.6063 373.0969,79.6031 Q373.8938,78.6 375.3938,78.6 Q375.8156,78.6 376.2,78.6938 Q376.5938,78.7875 376.9313,78.975 L376.9313,80.6531 Q376.5563,80.3156 376.2,80.1563 Q375.8438,79.9875 375.4688,79.9875 Q374.6625,79.9875 374.25,80.625 Q373.8375,81.2625 373.8375,82.5 Q373.8375,83.7469 374.25,84.3844 Q374.6625,85.0125 375.4688,85.0125 Q375.8438,85.0125 376.2,84.8531 Q376.5563,84.6938 376.9313,84.3469 L376.9313,86.025 Z "/><text fill="#000000" font-family="sans-serif" font-size="7.2" lengthAdjust="spacingAndGlyphs" textLength="82.8" x="387.75" y="84.9926">UserDetailsServiceImpl</text><line style="stroke: #A80036; stroke-width: 0.8999999999999999;" x1="319.5" x2="519.3" y1="92.1" y2="92.1"/><rect fill="none" height="3.6" style="stroke: #C82930; stroke-width: 0.6;" width="3.6" x="323.7" y="96.9"/><text fill="#000000" font-family="sans-serif" font-size="6.6" lengthAdjust="spacingAndGlyphs" textLength="111" x="330.9" y="100.635">userRepository : UserRepository</text><rect fill="none" height="3.6" style="stroke: #C82930; stroke-width: 0.6;" width="3.6" x="323.7" y="104.5937"/><text fill="#000000" font-family="sans-serif" font-size="6.6" lengthAdjust="spacingAndGlyphs" textLength="127.2" x="330.9" y="108.3287">passwordEncoder : PasswordEncoder</text><line style="stroke: #A80036; stroke-width: 0.8999999999999999;" x1="319.5" x2="519.3" y1="112.2875" y2="112.2875"/><ellipse cx="325.5" cy="118.8875" fill="#84BE84" rx="1.8" ry="1.8" style="stroke: #038048; stroke-width: 0.6;"/><text fill="#000000" font-family="sans-serif" font-size="6.6" lengthAdjust="spacingAndGlyphs" textLength="185.4" x="330.9" y="120.8224">loadUserByUsername(username : String) : UserDetails</text><!--MD5=[2c8b070088f9e9a5dfda32644ea219c6]
class AuthenticationController--><rect fill="#FEFECE" filter="url(#fsabta17nvzpj)" height="44.1875" id="AuthenticationController" style="stroke: #A80036; stroke-width: 0.8999999999999999;" width="244.8" x="119.4" y="636.6"/><ellipse cx="195.15" cy="646.2" fill="#ADD1B2" rx="6.6" ry="6.6" style="stroke: #A80036; stroke-width: 0.6;"/><path d="M196.6313,649.725 Q196.2844,649.9125 195.9,650.0063 Q195.5156,650.1 195.0938,650.1 Q193.5938,650.1 192.7969,649.0969 Q192.0094,648.0938 192.0094,646.2 Q192.0094,644.3063 192.7969,643.3031 Q193.5938,642.3 195.0938,642.3 Q195.5156,642.3 195.9,642.3938 Q196.2938,642.4875 196.6313,642.675 L196.6313,644.3531 Q196.2563,644.0156 195.9,643.8562 Q195.5438,643.6875 195.1688,643.6875 Q194.3625,643.6875 193.95,644.325 Q193.5375,644.9625 193.5375,646.2 Q193.5375,647.4469 193.95,648.0844 Q194.3625,648.7125 195.1688,648.7125 Q195.5438,648.7125 195.9,648.5531 Q196.2563,648.3938 196.6313,648.0469 L196.6313,649.725 Z "/><text fill="#000000" font-family="sans-serif" font-size="7.2" lengthAdjust="spacingAndGlyphs" textLength="88.2" x="207.45" y="648.6926">AuthenticationController</text><line style="stroke: #A80036; stroke-width: 0.8999999999999999;" x1="120" x2="363.6" y1="655.8" y2="655.8"/><line style="stroke: #A80036; stroke-width: 0.8999999999999999;" x1="120" x2="363.6" y1="660.6" y2="660.6"/><ellipse cx="126" cy="667.2" fill="#84BE84" rx="1.8" ry="1.8" style="stroke: #038048; stroke-width: 0.6;"/><text fill="#000000" font-family="sans-serif" font-size="6.6" lengthAdjust="spacingAndGlyphs" textLength="173.4" x="131.4" y="669.135">save(userDTO : UserDTO) : ResponseEntity&lt;User&gt;</text><ellipse cx="126" cy="674.8937" fill="#84BE84" rx="1.8" ry="1.8" style="stroke: #038048; stroke-width: 0.6;"/><text fill="#000000" font-family="sans-serif" font-size="6.6" lengthAdjust="spacingAndGlyphs" textLength="229.2" x="131.4" y="676.8287">authenticate(loginInfo : LoginInfo) : ResponseEntity&lt;JWTResponse&gt;</text><!--MD5=[093c210125347143eef5bb9199eae634]
class UserRepository--><rect fill="#FEFECE" filter="url(#fsabta17nvzpj)" height="44.1875" id="UserRepository" style="stroke: #A80036; stroke-width: 0.8999999999999999;" width="168" x="304.2" y="508.2"/><ellipse cx="358.65" cy="517.8" fill="#B4A7E5" rx="6.6" ry="6.6" style="stroke: #A80036; stroke-width: 0.6;"/><path d="M356.5031,515.2688 L356.5031,513.9 L360.9375,513.9 L360.9375,515.2688 L359.4563,515.2688 L359.4563,520.3406 L360.9375,520.3406 L360.9375,521.7 L356.5031,521.7 L356.5031,520.3406 L357.9844,520.3406 L357.9844,515.2688 L356.5031,515.2688 Z "/><text fill="#000000" font-family="sans-serif" font-size="7.2" font-style="italic" lengthAdjust="spacingAndGlyphs" textLength="54" x="370.95" y="520.2926">UserRepository</text><line style="stroke: #A80036; stroke-width: 0.8999999999999999;" x1="304.8" x2="471.6" y1="527.4" y2="527.4"/><line style="stroke: #A80036; stroke-width: 0.8999999999999999;" x1="304.8" x2="471.6" y1="532.2" y2="532.2"/><ellipse cx="310.8" cy="538.8" fill="#84BE84" rx="1.8" ry="1.8" style="stroke: #038048; stroke-width: 0.6;"/><text fill="#000000" font-family="sans-serif" font-size="6.6" lengthAdjust="spacingAndGlyphs" textLength="152.4" x="316.2" y="540.735">findByEmail(email : String) : Optional&lt;User&gt;</text><ellipse cx="310.8" cy="546.4937" fill="#84BE84" rx="1.8" ry="1.8" style="stroke: #038048; stroke-width: 0.6;"/><text fill="#000000" font-family="sans-serif" font-size="6.6" lengthAdjust="spacingAndGlyphs" textLength="132" x="316.2" y="548.4287">existsByEmail(email : String) : boolean</text><!--MD5=[cc238e0d519ea189d0e3d6a576e76cd6]
class JWTAuthenticationEntryPoint--><rect fill="#FEFECE" filter="url(#fsabta17nvzpj)" height="36.4937" id="JWTAuthenticationEntryPoint" style="stroke: #A80036; stroke-width: 0.8999999999999999;" width="124.2" x="771.3" y="194.7"/><ellipse cx="780.3" cy="204.3" fill="#ADD1B2" rx="6.6" ry="6.6" style="stroke: #A80036; stroke-width: 0.6;"/><path d="M781.7813,207.825 Q781.4344,208.0125 781.05,208.1063 Q780.6656,208.2 780.2438,208.2 Q778.7438,208.2 777.9469,207.1969 Q777.1594,206.1938 777.1594,204.3 Q777.1594,202.4063 777.9469,201.4031 Q778.7438,200.4 780.2438,200.4 Q780.6656,200.4 781.05,200.4938 Q781.4438,200.5875 781.7813,200.775 L781.7813,202.4531 Q781.4063,202.1156 781.05,201.9562 Q780.6938,201.7875 780.3188,201.7875 Q779.5125,201.7875 779.1,202.425 Q778.6875,203.0625 778.6875,204.3 Q778.6875,205.5469 779.1,206.1844 Q779.5125,206.8125 780.3188,206.8125 Q780.6938,206.8125 781.05,206.6531 Q781.4063,206.4938 781.7813,206.1469 L781.7813,207.825 Z "/><text fill="#000000" font-family="sans-serif" font-size="7.2" lengthAdjust="spacingAndGlyphs" textLength="105" x="788.7" y="206.7926">JWTAuthenticationEntryPoint</text><line style="stroke: #A80036; stroke-width: 0.8999999999999999;" x1="771.9" x2="894.9" y1="213.9" y2="213.9"/><line style="stroke: #A80036; stroke-width: 0.8999999999999999;" x1="771.9" x2="894.9" y1="218.7" y2="218.7"/><ellipse cx="777.9" cy="225.3" fill="#84BE84" rx="1.8" ry="1.8" style="stroke: #038048; stroke-width: 0.6;"/><text fill="#000000" font-family="sans-serif" font-size="6.6" lengthAdjust="spacingAndGlyphs" textLength="61.2" x="783.3" y="227.235">commence(): void</text><!--MD5=[6b22ebaf0bcdad7a0567e07daca414bc]
class JWTRequestFilter--><rect fill="#FEFECE" filter="url(#fsabta17nvzpj)" height="51.8812" id="JWTRequestFilter" style="stroke: #A80036; stroke-width: 0.8999999999999999;" width="178.2" x="916.5" y="187.2"/><ellipse cx="972.45" cy="196.8" fill="#ADD1B2" rx="6.6" ry="6.6" style="stroke: #A80036; stroke-width: 0.6;"/><path d="M973.9313,200.325 Q973.5844,200.5125 973.2,200.6063 Q972.8156,200.7 972.3938,200.7 Q970.8938,200.7 970.0969,199.6969 Q969.3094,198.6938 969.3094,196.8 Q969.3094,194.9063 970.0969,193.9031 Q970.8938,192.9 972.3938,192.9 Q972.8156,192.9 973.2,192.9938 Q973.5938,193.0875 973.9313,193.275 L973.9313,194.9531 Q973.5563,194.6156 973.2,194.4562 Q972.8438,194.2875 972.4688,194.2875 Q971.6625,194.2875 971.25,194.925 Q970.8375,195.5625 970.8375,196.8 Q970.8375,198.0469 971.25,198.6844 Q971.6625,199.3125 972.4688,199.3125 Q972.8438,199.3125 973.2,199.1531 Q973.5563,198.9938 973.9313,198.6469 L973.9313,200.325 Z "/><text fill="#000000" font-family="sans-serif" font-size="7.2" lengthAdjust="spacingAndGlyphs" textLength="61.2" x="984.75" y="199.2926">JWTRequestFilter</text><line style="stroke: #A80036; stroke-width: 0.8999999999999999;" x1="917.1" x2="1094.1" y1="206.4" y2="206.4"/><rect fill="none" height="3.6" style="stroke: #C82930; stroke-width: 0.6;" width="3.6" x="921.3" y="211.2"/><text fill="#000000" font-family="sans-serif" font-size="6.6" lengthAdjust="spacingAndGlyphs" textLength="162.6" x="928.5" y="214.935">userDetailsServiceImpl : UserDetailsServiceImpl</text><rect fill="none" height="3.6" style="stroke: #C82930; stroke-width: 0.6;" width="3.6" x="921.3" y="218.8937"/><text fill="#000000" font-family="sans-serif" font-size="6.6" lengthAdjust="spacingAndGlyphs" textLength="91.8" x="928.5" y="222.6287">jwtTokenUtil : JWTTokenUtil</text><line style="stroke: #A80036; stroke-width: 0.8999999999999999;" x1="917.1" x2="1094.1" y1="226.5875" y2="226.5875"/><polygon fill="#FFFF44" points="923.1,230.1875,925.5,232.5875,923.1,234.9875,920.7,232.5875" style="stroke: #B38D22; stroke-width: 0.6;"/><text fill="#000000" font-family="sans-serif" font-size="6.6" lengthAdjust="spacingAndGlyphs" textLength="77.4" x="928.5" y="235.1224">doFilterInternal() : void</text><!--MD5=[1ab0b66779a951a81f571978b5a89792]
class JWTTokenUtil--><rect fill="#FEFECE" filter="url(#fsabta17nvzpj)" height="105.7373" id="JWTTokenUtil" style="stroke: #A80036; stroke-width: 0.8999999999999999;" width="279.6" x="815.4" y="274.8"/><ellipse cx="928.95" cy="284.4" fill="#ADD1B2" rx="6.6" ry="6.6" style="stroke: #A80036; stroke-width: 0.6;"/><path d="M930.4313,287.925 Q930.0844,288.1125 929.7,288.2063 Q929.3156,288.3 928.8938,288.3 Q927.3938,288.3 926.5969,287.2969 Q925.8094,286.2938 925.8094,284.4 Q925.8094,282.5062 926.5969,281.5031 Q927.3938,280.5 928.8938,280.5 Q929.3156,280.5 929.7,280.5938 Q930.0938,280.6875 930.4313,280.875 L930.4313,282.5531 Q930.0563,282.2156 929.7,282.0563 Q929.3438,281.8875 928.9688,281.8875 Q928.1625,281.8875 927.75,282.525 Q927.3375,283.1625 927.3375,284.4 Q927.3375,285.6469 927.75,286.2844 Q928.1625,286.9125 928.9688,286.9125 Q929.3438,286.9125 929.7,286.7531 Q930.0563,286.5938 930.4313,286.2469 L930.4313,287.925 Z "/><text fill="#000000" font-family="sans-serif" font-size="7.2" lengthAdjust="spacingAndGlyphs" textLength="47.4" x="941.25" y="286.8926">JWTTokenUtil</text><line style="stroke: #A80036; stroke-width: 0.8999999999999999;" x1="816" x2="1094.4" y1="294" y2="294"/><ellipse cx="822" cy="300.6" fill="none" rx="1.8" ry="1.8" style="stroke: #038048; stroke-width: 0.6;"/><text fill="#000000" font-family="sans-serif" font-size="6.6" lengthAdjust="spacingAndGlyphs" text-decoration="underline" textLength="96" x="827.4" y="302.535">JWT_TOKEN_VALIDITY : Long</text><rect fill="none" height="3.6" style="stroke: #C82930; stroke-width: 0.6;" width="3.6" x="820.2" y="306.4937"/><text fill="#000000" font-family="sans-serif" font-size="6.6" lengthAdjust="spacingAndGlyphs" text-decoration="underline" textLength="53.4" x="827.4" y="310.2287">key : SecretKey</text><line style="stroke: #A80036; stroke-width: 0.8999999999999999;" x1="816" x2="1094.4" y1="314.1875" y2="314.1875"/><ellipse cx="822" cy="320.7875" fill="#84BE84" rx="1.8" ry="1.8" style="stroke: #038048; stroke-width: 0.6;"/><text fill="#000000" font-family="sans-serif" font-size="6.6" lengthAdjust="spacingAndGlyphs" textLength="144.6" x="827.4" y="322.7224">getEmailFromToken(token : String) : String</text><ellipse cx="822" cy="328.4812" fill="#84BE84" rx="1.8" ry="1.8" style="stroke: #038048; stroke-width: 0.6;"/><text fill="#000000" font-family="sans-serif" font-size="6.6" lengthAdjust="spacingAndGlyphs" textLength="171.6" x="827.4" y="330.4161">getExpirationDateFromToken(token : String) : Date</text><rect fill="#F24D5C" height="3.6" style="stroke: #C82930; stroke-width: 0.6;" width="3.6" x="820.2" y="334.3749"/><text fill="#000000" font-family="sans-serif" font-size="6.6" lengthAdjust="spacingAndGlyphs" textLength="136.8" x="827.4" y="338.1099">isTokenExpired(token : String) : Boolean</text><ellipse cx="822" cy="343.8686" fill="#84BE84" rx="1.8" ry="1.8" style="stroke: #038048; stroke-width: 0.6;"/><text fill="#000000" font-family="sans-serif" font-size="6.6" lengthAdjust="spacingAndGlyphs" textLength="166.2" x="827.4" y="345.8036">generateToken(userDetails : UserDetails) : String</text><rect fill="#F24D5C" height="3.6" style="stroke: #C82930; stroke-width: 0.6;" width="3.6" x="820.2" y="349.7624"/><text fill="#000000" font-family="sans-serif" font-size="6.6" lengthAdjust="spacingAndGlyphs" textLength="264" x="827.4" y="353.4973">getClaimFromToken(token : String, claimsResolver : Function&lt;Claims, T&gt;) : T</text><rect fill="#F24D5C" height="3.6" style="stroke: #C82930; stroke-width: 0.6;" width="3.6" x="820.2" y="357.4561"/><text fill="#000000" font-family="sans-serif" font-size="6.6" lengthAdjust="spacingAndGlyphs" textLength="160.2" x="827.4" y="361.1911">getAllClaimsFromToken(token : String) : Claims</text><rect fill="#F24D5C" height="3.6" style="stroke: #C82930; stroke-width: 0.6;" width="3.6" x="820.2" y="365.1498"/><text fill="#000000" font-family="sans-serif" font-size="6.6" lengthAdjust="spacingAndGlyphs" textLength="248.4" x="827.4" y="368.8848">doGenerateToken(claims : Map&lt;String, Object&gt;, subject : String) : String</text><ellipse cx="822" cy="374.6435" fill="#84BE84" rx="1.8" ry="1.8" style="stroke: #038048; stroke-width: 0.6;"/><text fill="#000000" font-family="sans-serif" font-size="6.6" lengthAdjust="spacingAndGlyphs" textLength="211.2" x="827.4" y="376.5785">validateToken(String token, UserDetails userDetails) : Boolean</text><!--MD5=[9a3251a5dfe7fa1769253b32e5c2b53d]
class WebSecurityConfig--><rect fill="#FEFECE" filter="url(#fsabta17nvzpj)" height="74.9624" id="WebSecurityConfig" style="stroke: #A80036; stroke-width: 0.8999999999999999;" width="211.8" x="827.1" y="61.2"/><ellipse cx="895.95" cy="70.8" fill="#ADD1B2" rx="6.6" ry="6.6" style="stroke: #A80036; stroke-width: 0.6;"/><path d="M897.4313,74.325 Q897.0844,74.5125 896.7,74.6063 Q896.3156,74.7 895.8938,74.7 Q894.3938,74.7 893.5969,73.6969 Q892.8094,72.6938 892.8094,70.8 Q892.8094,68.9063 893.5969,67.9031 Q894.3938,66.9 895.8938,66.9 Q896.3156,66.9 896.7,66.9937 Q897.0938,67.0875 897.4313,67.275 L897.4313,68.9531 Q897.0563,68.6156 896.7,68.4563 Q896.3438,68.2875 895.9688,68.2875 Q895.1625,68.2875 894.75,68.925 Q894.3375,69.5625 894.3375,70.8 Q894.3375,72.0469 894.75,72.6844 Q895.1625,73.3125 895.9688,73.3125 Q896.3438,73.3125 896.7,73.1531 Q897.0563,72.9937 897.4313,72.6469 L897.4313,74.325 Z "/><text fill="#000000" font-family="sans-serif" font-size="7.2" lengthAdjust="spacingAndGlyphs" textLength="69" x="908.25" y="73.2926">WebSecurityConfig</text><line style="stroke: #A80036; stroke-width: 0.8999999999999999;" x1="827.7" x2="1038.3" y1="80.4" y2="80.4"/><rect fill="none" height="3.6" style="stroke: #C82930; stroke-width: 0.6;" width="3.6" x="831.9" y="85.2"/><text fill="#000000" font-family="sans-serif" font-size="6.6" lengthAdjust="spacingAndGlyphs" textLength="196.2" x="839.1" y="88.935">jwtAuthenticationEntryPoint : JWTAuthenticationEntryPoint</text><rect fill="none" height="3.6" style="stroke: #C82930; stroke-width: 0.6;" width="3.6" x="831.9" y="92.8937"/><text fill="#000000" font-family="sans-serif" font-size="6.6" lengthAdjust="spacingAndGlyphs" textLength="144" x="839.1" y="96.6287">jwtUserDetailsService : UserDetailsService</text><rect fill="none" height="3.6" style="stroke: #C82930; stroke-width: 0.6;" width="3.6" x="831.9" y="100.5875"/><text fill="#000000" font-family="sans-serif" font-size="6.6" lengthAdjust="spacingAndGlyphs" textLength="118.2" x="839.1" y="104.3224">jwtRequestFilter : JWTRequestFilter</text><line style="stroke: #A80036; stroke-width: 0.8999999999999999;" x1="827.7" x2="1038.3" y1="108.2812" y2="108.2812"/><ellipse cx="833.7" cy="114.8812" fill="#84BE84" rx="1.8" ry="1.8" style="stroke: #038048; stroke-width: 0.6;"/><text fill="#000000" font-family="sans-serif" font-size="6.6" lengthAdjust="spacingAndGlyphs" textLength="132" x="839.1" y="116.8161">passwordEncoder() : PasswordEncoder</text><ellipse cx="833.7" cy="122.5749" fill="#84BE84" rx="1.8" ry="1.8" style="stroke: #038048; stroke-width: 0.6;"/><text fill="#000000" font-family="sans-serif" font-size="6.6" lengthAdjust="spacingAndGlyphs" textLength="186" x="839.1" y="124.5099">authenticationManagerBean() : AuthenticationManager</text><polygon fill="#FFFF44" points="833.7,127.2686,836.1,129.6686,833.7,132.0686,831.3,129.6686" style="stroke: #B38D22; stroke-width: 0.6;"/><text fill="#000000" font-family="sans-serif" font-size="6.6" lengthAdjust="spacingAndGlyphs" textLength="145.2" x="839.1" y="132.2036">configure(httpSecurity : HttpSecurity): void</text><path d="M3.6,86.7 L3.6,110.8594 L166.8,110.8594 L166.8,92.7 L160.8,86.7 L3.6,86.7 " fill="#FBFB77" filter="url(#fsabta17nvzpj)" style="stroke: #A80036; stroke-width: 0.6;"/><path d="M160.8,86.7 L160.8,92.7 L166.8,92.7 L160.8,86.7 " fill="#FBFB77" style="stroke: #A80036; stroke-width: 0.6;"/><text fill="#000000" font-family="sans-serif" font-size="7.8" lengthAdjust="spacingAndGlyphs" textLength="115.8" x="7.2" y="96.9401">Getters e Setters simples n達o</text><text fill="#000000" font-family="sans-serif" font-size="7.8" lengthAdjust="spacingAndGlyphs" textLength="150.6" x="7.2" y="106.0198">est達o inclusos no diagrama de classes</text><!--MD5=[85bf1e900a1de38a0a0019ab5436917c]
link GMN16973 to model--><path d="M85.2,110.766 C85.2,117.843 85.2,127.5919 85.2,138.269 C85.2,143.6075 85.2,149.1781 85.2,154.7628 C85.2,157.5552 85.2,160.351 85.2,163.1232 C85.2,163.4697 85.2,163.8159 85.2,164.1616 C85.2,164.3344 85.2,164.5072 85.2,164.6798 " fill="none" id="GMN16973-model" style="stroke: #A80036; stroke-width: 0.6; stroke-dasharray: 7.0,7.0;"/><!--MD5=[ae243bc8d23624490bdbd51223680848]
reverse link User to JWTResponse--><path d="M208.962,369.138 C213.252,385.152 217.992,402.858 221.592,416.31 " fill="none" id="User&lt;-JWTResponse" style="stroke: #A80036; stroke-width: 0.6;"/><polygon fill="#A80036" points="206.898,361.44,205.5136,365.5392,208.765,368.3937,210.1494,364.2945,206.898,361.44" style="stroke: #A80036; stroke-width: 0.6;"/><!--MD5=[3ff462498033396e80250f3f1a1bff95]
reverse link TypeEnum to User--><path d="M151.434,242.37 C160.056,258.042 170.76,277.5 179.736,293.808 " fill="none" id="TypeEnum&lt;-User" style="stroke: #A80036; stroke-width: 0.6;"/><polygon fill="#A80036" points="147.63,235.464,147.2583,239.7747,151.0943,241.7758,151.4661,237.4651,147.63,235.464" style="stroke: #A80036; stroke-width: 0.6;"/><!--MD5=[42bff086c21926f1541ccd943840171e]
link User to UserDTO--><path d="M192.114,361.218 C189.294,377.748 186.012,398.094 183.6,416.4 C180.048,443.376 177.018,474.084 174.984,496.74 " fill="none" id="User-UserDTO" style="stroke: #A80036; stroke-width: 0.6;"/><!--MD5=[43f0c3d2ef83c09d38514463e97fb566]
link AuthenticationServiceImpl to AuthenticationService--><path d="M631.8,136.332 C631.8,149.952 631.8,165.3 631.8,178.614 " fill="none" id="AuthenticationServiceImpl-&gt;AuthenticationService" style="stroke: #A80036; stroke-width: 0.6;"/><polygon fill="none" points="636,178.644,631.8,190.644,627.6,178.644,636,178.644" style="stroke: #A80036; stroke-width: 0.6;"/><!--MD5=[92c75000c16d2359e8a0bd27c6fad6cf]
link UserDTO to AuthenticationController--><path d="M190.302,564.09 C202.788,586.908 219.036,616.596 229.908,636.468 " fill="none" id="UserDTO-AuthenticationController" style="stroke: #A80036; stroke-width: 0.6;"/><!--MD5=[6d767ee01b0c4d8f9ef0d99c190940ac]
link LoginInfo to AuthenticationController--><path d="M260.778,233.904 C337.296,276.528 504,376.452 504,438 C504,438 504,438 504,531 C504,598.608 432.564,630.294 364.266,645.138 " fill="none" id="LoginInfo-AuthenticationController" style="stroke: #A80036; stroke-width: 0.6;"/><!--MD5=[2ec715352816470a02349ba406baf6b1]
link JWTResponse to AuthenticationController--><path d="M228.834,460.998 C231.594,502.98 237.618,594.582 240.372,636.486 " fill="none" id="JWTResponse-AuthenticationController" style="stroke: #A80036; stroke-width: 0.6;"/><!--MD5=[07699aa85d1b6da0188acd08f4af0b54]
link User to UserRepository--><path d="M229.194,361.266 C268.296,402.708 334.218,472.584 367.56,507.924 " fill="none" id="User-UserRepository" style="stroke: #A80036; stroke-width: 0.6;"/><!--MD5=[27768ab9b0cb0027a54c26eb83e7d099]
link JWTRequestFilter to JWTTokenUtil--><path d="M994.29,239.052 C990.504,247.56 986.118,257.442 981.672,267.438 " fill="none" id="JWTRequestFilter-&gt;JWTTokenUtil" style="stroke: #A80036; stroke-width: 0.6;"/><polygon fill="#A80036" points="978.432,274.722,982.0888,272.4095,981.3606,268.1445,977.7038,270.4571,978.432,274.722" style="stroke: #A80036; stroke-width: 0.6;"/><!--MD5=[2b34225108c0252b67f5ac805e1aeade]
link WebSecurityConfig to JWTAuthenticationEntryPoint--><path d="M900.39,136.332 C885.228,153.546 867.648,173.508 854.304,188.664 " fill="none" id="WebSecurityConfig-&gt;JWTAuthenticationEntryPoint" style="stroke: #A80036; stroke-width: 0.6;"/><polygon fill="#A80036" points="849.042,194.634,853.2219,193.5168,853.7983,189.2287,849.6184,190.3459,849.042,194.634" style="stroke: #A80036; stroke-width: 0.6;"/><!--MD5=[4ae18a184bec1c7c6c0c8605a722a4e9]
link WebSecurityConfig to JWTRequestFilter--><path d="M956.772,136.332 C965.898,150.552 976.23,166.65 985.032,180.36 " fill="none" id="WebSecurityConfig-&gt;JWTRequestFilter" style="stroke: #A80036; stroke-width: 0.6;"/><polygon fill="#A80036" points="989.352,187.086,989.4298,182.76,985.4665,181.0244,985.3887,185.3503,989.352,187.086" style="stroke: #A80036; stroke-width: 0.6;"/><!--MD5=[e5aee6c799f1b953280dfb188e785021]
@startuml
note top of model : Getters e Setters simples n達o\nest達o inclusos no diagrama de classes

package "model" {

    class User {
        -uuid : UUID
        -name : String
        -email : String
        -password : String
        -type : TypeEnum
    }

    class UserDTO {
        -name : String
        -email : String
        -password : String
        -type : String
        +toUser() : User
    }

    class JWTResponse {
        -user : User
        -token : String
    }

    class LoginInfo {
        -email : String
        -password : String
    }

    enum TypeEnum {
        USER
        COMPANY
    }

    User *- - JWTResponse
    TypeEnum *- - User
    User - - - UserDTO

}

package "service" {

    interface AuthenticationService {
        +save(user : User) : User
        +authenticate(loginInfo : LoginInfo) : JWTResponse
    }

    package "impl" {

        class AuthenticationServiceImpl{
            -userRepository : UserRepository
            -authenticationManager : AuthenticationManager
            -jwtTokenUtil : JWTTokenUtil
            -userDetailsService : UserDetailsService
            +save(user : User) : User
            +authenticate(loginInfo : LoginInfo) : JWTResponse
        }

        class UserDetailsServiceImpl {
            -userRepository : UserRepository
            -passwordEncoder : PasswordEncoder
            +loadUserByUsername(username : String) : UserDetails
        }

        AuthenticationServiceImpl - -|> AuthenticationService
    }

}

package "controller" {

    class AuthenticationController {
        +save(userDTO : UserDTO) : ResponseEntity<User>
        +authenticate(loginInfo : LoginInfo) : ResponseEntity<JWTResponse>
    }

    UserDTO - - - AuthenticationController
    LoginInfo - - - AuthenticationController
    JWTResponse - - - AuthenticationController

}

package "repository" {

    interface UserRepository {
        +findByEmail(email : String) : Optional<User>
        +existsByEmail(email : String) : boolean
    }

    User - - - UserRepository
}

package "security" {

    class JWTAuthenticationEntryPoint {
        +commence(): void
    }

    class JWTRequestFilter {
        -userDetailsServiceImpl : UserDetailsServiceImpl
        -jwtTokenUtil : JWTTokenUtil
        #doFilterInternal() : void
    }

    class JWTTokenUtil {
        {static} +JWT_TOKEN_VALIDITY : Long
        {static} -key : SecretKey
        +getEmailFromToken(token : String) : String
        +getExpirationDateFromToken(token : String) : Date
        -isTokenExpired(token : String) : Boolean
        +generateToken(userDetails : UserDetails) : String
        -getClaimFromToken(token : String, claimsResolver : Function<Claims, T>) : T
        -getAllClaimsFromToken(token : String) : Claims
        -doGenerateToken(claims : Map<String, Object>, subject : String) : String
        +validateToken(String token, UserDetails userDetails) : Boolean
    }

    class WebSecurityConfig {
        -jwtAuthenticationEntryPoint : JWTAuthenticationEntryPoint
        -jwtUserDetailsService : UserDetailsService
        -jwtRequestFilter : JWTRequestFilter
        +passwordEncoder() : PasswordEncoder
        +authenticationManagerBean() : AuthenticationManager
        #configure(httpSecurity : HttpSecurity): void
    }

    JWTRequestFilter - -* JWTTokenUtil
    WebSecurityConfig - -* JWTAuthenticationEntryPoint
    WebSecurityConfig - -* JWTRequestFilter
}
@enduml

PlantUML version 1.2020.09(Sun May 10 07:51:06 BRT 2020)
(GPL source distribution)
Java Runtime: OpenJDK Runtime Environment
JVM: OpenJDK 64-Bit Server VM
Java Version: 11.0.8+10-b944.31
Operating System: Linux
Default Encoding: UTF-8
Language: pt
Country: BR
--></g></svg>